<svg width="20" height="20" viewBox="0 0 20 20" fill="none" xmlns="http://www.w3.org/2000/svg">
<g clip-path="url(#clip0_8_440)">
<path d="M18.2143 8.14096H12.1429C11.9456 8.14096 11.7857 7.98313 11.7857 7.78845V1.79576C11.7857 0.822395 10.9862 0.0332031 10 0.0332031C9.01385 0.0332031 8.21429 0.822395 8.21429 1.79576V7.78845C8.21429 7.98313 8.05437 8.14096 7.85714 8.14096H1.78571C0.799561 8.14096 0 8.93016 0 9.90352C0 10.8769 0.799561 11.6661 1.78571 11.6661H7.85714C8.05437 11.6661 8.21429 11.8239 8.21429 12.0186V18.0113C8.21429 18.9846 9.01385 19.7738 10 19.7738C10.9862 19.7738 11.7857 18.9846 11.7857 18.0113V12.0186C11.7857 11.8239 11.9456 11.6661 12.1429 11.6661H18.2143C19.2004 11.6661 20 10.8769 20 9.90352C20 8.93016 19.2004 8.14096 18.2143 8.14096Z" fill="white"/>
</g>
<defs>
<clipPath id="clip0_8_440">
<rect width="20" height="19.7406" fill="white" transform="translate(0 0.0332031)"/>
</clipPath>
</defs>
</svg>
