<svg width="1277" height="60" viewBox="0 0 1277 60" fill="none" xmlns="http://www.w3.org/2000/svg">
<g clip-path="url(#clip0_2_248)">
<path d="M22.7921 0.00671387H24.4017C29.99 0.130085 35.4871 2.41246 39.4353 6.45287C37.9775 7.96417 36.4893 9.41379 35.0619 10.9251C32.8448 8.88946 30.1722 7.31647 27.2566 6.7613C22.9439 5.83601 18.2972 6.66877 14.6831 9.16704C10.7349 11.7887 8.06224 16.2301 7.4852 20.9799C6.84741 25.668 8.15335 30.6028 11.1601 34.2423C14.0453 37.7892 18.4491 40.0099 23.0047 40.1641C27.2566 40.4109 31.6907 39.0846 34.7886 36.062C37.2182 33.9339 38.342 30.6954 38.7064 27.5494C33.6648 27.5494 28.6233 27.5802 23.5817 27.5494V21.1958H44.8109C45.9043 28.012 44.325 35.6919 39.2227 40.5651C35.8212 44.0195 31.1137 46.0551 26.3151 46.4561C21.6684 46.9187 16.8698 46.0243 12.7393 43.7419C7.7889 41.0586 3.8407 36.5247 1.89697 31.1888C0.0747157 26.2848 0.0443449 20.7331 1.74511 15.7983C3.29402 11.2952 6.27036 7.31647 10.0971 4.54061C13.772 1.7956 18.2365 0.2843 22.7921 0.00671387Z" fill="#120D26"/>
<path d="M144.579 1.60913H151.078V45.6528C148.922 45.6528 146.735 45.6836 144.579 45.6219C144.609 30.9715 144.579 16.2903 144.579 1.60913V1.60913Z" fill="#120D26"/>
<path d="M59.2678 16.8764C63.2768 16.1053 67.6198 16.9689 70.9302 19.4055C73.937 21.5645 76.0325 24.9572 76.6703 28.6583C77.4903 32.9455 76.4577 37.6336 73.7244 41.0263C70.7784 44.82 65.9494 46.8556 61.2419 46.5472C56.9293 46.3005 52.7381 44.1106 50.187 40.5328C47.3017 36.585 46.6032 31.1566 48.1825 26.5302C49.7618 21.5645 54.2263 17.7708 59.2678 16.8764V16.8764ZM60.179 22.7365C58.5389 23.1683 57.0204 24.1245 55.9271 25.4815C52.9811 29.0593 53.1633 34.8886 56.413 38.2196C58.2656 40.1319 61.0597 41.0263 63.6412 40.502C66.0405 40.0702 68.1361 38.4355 69.2902 36.2765C71.2947 32.6062 70.7177 27.548 67.6502 24.6796C65.6761 22.8291 62.7909 22.058 60.179 22.7365Z" fill="#120D26"/>
<path d="M91.4609 16.8763C96.0469 15.9819 101.058 17.2773 104.49 20.5466C110.078 25.6357 110.686 35.1662 105.917 41.0263C103.032 44.7275 98.3551 46.7631 93.7387 46.5472C89.335 46.4238 84.9919 44.2031 82.3801 40.5328C79.4341 36.4924 78.7963 30.9407 80.4667 26.2217C82.1371 21.4102 86.5105 17.7399 91.4609 16.8763V16.8763ZM92.372 22.7365C90.732 23.1683 89.2135 24.1244 88.1201 25.4507C85.2045 28.9667 85.326 34.7035 88.4542 38.0654C90.3068 40.0702 93.1921 41.0572 95.8647 40.502C98.2336 40.0393 100.36 38.4355 101.514 36.2765C103.488 32.5754 102.911 27.5171 99.8129 24.6487C97.8388 22.7982 94.9536 22.0579 92.372 22.7365Z" fill="#120D26"/>
<path d="M118.764 18.6652C122.257 16.4445 126.903 15.8277 130.669 17.7399C131.854 18.2642 132.826 19.1587 133.767 20.0531C133.798 19.2204 133.767 18.3568 133.798 17.4932C135.832 17.524 137.867 17.4932 139.933 17.524V44.7274C139.902 48.8295 138.87 53.1784 135.954 56.1701C132.765 59.4703 127.875 60.4881 123.472 59.8096C118.764 59.1002 114.664 55.615 112.842 51.2044C114.664 50.31 116.577 49.6006 118.46 48.7679C119.523 51.297 121.68 53.456 124.383 53.9495C127.086 54.4429 130.214 53.7644 131.975 51.482C133.858 49.138 133.858 45.9303 133.767 43.0619C132.37 44.4499 130.761 45.6836 128.817 46.1462C124.595 47.3491 119.949 45.8686 116.699 42.9694C113.419 40.0702 111.475 35.5979 111.657 31.1566C111.748 26.1292 114.543 21.2868 118.764 18.6652V18.6652ZM125.051 22.6131C123.198 22.9215 121.467 23.9702 120.283 25.4198C117.428 28.8742 117.428 34.3951 120.313 37.7878C121.953 39.7926 124.595 40.9029 127.146 40.6253C129.546 40.3786 131.763 38.8364 132.947 36.7083C134.952 33.0997 134.618 28.1957 131.915 25.0497C130.244 23.1066 127.572 22.1504 125.051 22.6131V22.6131Z" fill="#120D26"/>
<path d="M158.884 20.2383C162.528 16.7839 168.147 15.6118 172.824 17.4316C177.258 19.1279 180.083 23.4151 181.51 27.8256C174.919 30.6015 168.359 33.3465 161.769 36.1224C162.68 37.8804 164.077 39.4843 165.96 40.132C168.602 41.0881 171.761 40.7488 173.978 38.9599C174.859 38.2814 175.557 37.3869 176.225 36.5233C177.896 37.6645 179.566 38.7749 181.237 39.9161C178.868 43.5247 174.889 46.0538 170.607 46.4548C165.869 47.0408 160.827 45.1902 157.76 41.4274C152.718 35.5055 153.204 25.5741 158.884 20.2383V20.2383ZM162.133 25.9442C161.101 27.4555 160.676 29.3061 160.706 31.1258C165.11 29.2753 169.513 27.4247 173.917 25.5433C173.188 23.8161 171.427 22.7674 169.635 22.4898C166.75 21.9655 163.743 23.5385 162.133 25.9442V25.9442Z" fill="#120D26"/>
</g>
<g clip-path="url(#clip1_2_248)">
<path d="M318.51 16.9153H329.398L335.737 33.2142L342.159 16.9153H352.759L336.797 55.5H326.13L330.499 45.2757L318.51 16.9153Z" fill="#120D26"/>
<path d="M363.803 16.2665C355.622 16.2665 350.451 23.6389 350.451 30.9806C350.451 39.2422 356.121 45.7922 363.647 45.7922C369.262 45.7922 371.379 42.3546 371.379 42.3546V45.0324H380.875V16.9155H371.379V19.4716C371.379 19.4716 369.017 16.2665 363.803 16.2665ZM365.822 25.3022C369.597 25.3022 371.544 28.3034 371.544 31.0115C371.544 33.9276 369.458 36.7893 365.822 36.7893C362.809 36.7893 360.087 34.3149 360.087 31.1356C360.087 27.9113 362.277 25.3022 365.822 25.3022Z" fill="#120D26"/>
<path d="M384.145 45.0322V4.5H394.077V19.5689C394.077 19.5689 396.436 16.2699 401.376 16.2699C407.42 16.2699 410.961 20.7951 410.961 27.2613V45.0322H401.102V29.6957C401.102 27.5074 400.064 25.3934 397.715 25.3934C395.323 25.3934 394.077 27.5394 394.077 29.6957V45.0322H384.145Z" fill="#120D26"/>
<path d="M427.895 16.2698C418.527 16.2698 412.949 23.4281 412.949 31.0976C412.949 39.8255 419.702 45.7922 427.93 45.7922C435.904 45.7922 442.882 40.0963 442.882 31.244C442.882 21.5579 435.576 16.2698 427.895 16.2698ZM427.984 25.3849C431.293 25.3849 433.583 28.1545 433.583 31.108C433.583 33.6271 431.449 36.7342 427.984 36.7342C424.809 36.7342 422.426 34.1747 422.426 31.0804C422.426 28.0997 424.407 25.3849 427.984 25.3849Z" fill="#120D26"/>
<path d="M459.429 16.2698C450.061 16.2698 444.483 23.4281 444.483 31.0976C444.483 39.8255 451.237 45.7922 459.464 45.7922C467.439 45.7922 474.417 40.0963 474.417 31.244C474.417 21.5579 467.11 16.2698 459.429 16.2698ZM459.518 25.3849C462.827 25.3849 465.117 28.1545 465.117 31.108C465.117 33.6271 462.983 36.7342 459.518 36.7342C456.343 36.7342 453.96 34.1747 453.96 31.0804C453.96 28.0997 455.941 25.3849 459.518 25.3849Z" fill="#120D26"/>
<path d="M482.254 45.6292C485.896 45.6292 488.849 42.6618 488.849 39.0015C488.849 35.3411 485.896 32.3738 482.254 32.3738C478.611 32.3738 475.659 35.3411 475.659 39.0015C475.659 42.6618 478.611 45.6292 482.254 45.6292Z" fill="#120D26"/>
<path d="M491.016 29.9391H479.143L489.681 4.5H501.509L491.016 29.9391Z" fill="#120D26"/>
</g>
<g clip-path="url(#clip2_2_248)">
<path d="M895.106 27.3823V22.8539H889.502V15.814L889.313 15.8723L884.05 17.4883L883.946 17.52V22.8541H875.638V19.8825C875.638 18.4989 875.947 17.44 876.554 16.7339C877.158 16.0362 878.021 15.6815 879.122 15.6815C879.913 15.6815 880.732 15.8685 881.557 16.2374L881.764 16.3301V11.5611L881.666 11.5252C880.897 11.2478 879.851 11.108 878.554 11.108C876.919 11.108 875.434 11.465 874.139 12.1724C872.843 12.8808 871.824 13.8921 871.11 15.1778C870.398 16.4621 870.037 17.9454 870.037 19.5869V22.8539H866.135V27.3823H870.037V46.4594H875.638V27.3823H883.946V39.5055C883.946 44.4984 886.293 47.0286 890.922 47.0286C891.682 47.0286 892.483 46.9392 893.3 46.7641C894.132 46.5842 894.699 46.4046 895.032 46.2128L895.106 46.169V41.5988L894.878 41.75C894.574 41.9532 894.196 42.1194 893.752 42.2429C893.306 42.3687 892.934 42.4317 892.645 42.4317C891.561 42.4317 890.759 42.1385 890.261 41.5599C889.758 40.9761 889.502 39.9551 889.502 38.5268V27.3823H895.106ZM853.625 42.4325C851.592 42.4325 849.989 41.756 848.86 40.4233C847.723 39.084 847.147 37.1745 847.147 34.7484C847.147 32.2454 847.723 30.2863 848.86 28.9233C849.991 27.5693 851.578 26.8821 853.58 26.8821C855.522 26.8821 857.068 27.5384 858.176 28.8339C859.289 30.1361 859.854 32.0795 859.854 34.6117C859.854 37.175 859.323 39.144 858.275 40.4612C857.235 41.7684 855.671 42.4325 853.625 42.4325ZM853.874 22.2852C849.995 22.2852 846.915 23.4258 844.718 25.6753C842.523 27.925 841.41 31.0383 841.41 34.9295C841.41 38.6255 842.496 41.5983 844.639 43.7641C846.782 45.9306 849.699 47.0281 853.307 47.0281C857.067 47.0281 860.087 45.8716 862.283 43.591C864.478 41.3128 865.59 38.2289 865.59 34.4286C865.59 30.6749 864.547 27.6799 862.487 25.5286C860.427 23.3762 857.528 22.2852 853.874 22.2852ZM832.378 22.2852C829.739 22.2852 827.557 22.9625 825.89 24.2978C824.212 25.6411 823.361 27.4029 823.361 29.5348C823.361 30.643 823.545 31.6274 823.906 32.4623C824.27 33.3 824.833 34.0376 825.58 34.6565C826.322 35.2705 827.468 35.9137 828.985 36.568C830.261 37.0948 831.212 37.5404 831.817 37.8916C832.408 38.2359 832.827 38.5819 833.064 38.9189C833.294 39.2487 833.41 39.7 833.41 40.257C833.41 41.8429 832.227 42.6145 829.792 42.6145C828.888 42.6145 827.858 42.4252 826.729 42.0521C825.609 41.6846 824.551 41.1465 823.593 40.4565L823.361 40.2891V45.701L823.446 45.7408C824.239 46.108 825.238 46.4176 826.416 46.6612C827.591 46.905 828.659 47.0291 829.587 47.0291C832.451 47.0291 834.756 46.3486 836.439 45.0053C838.132 43.6527 838.99 41.8494 838.99 39.6437C838.99 38.0526 838.528 36.6881 837.617 35.5876C836.713 34.4961 835.144 33.4941 832.955 32.6083C831.211 31.9059 830.093 31.3228 829.632 30.8752C829.188 30.4428 828.963 29.8313 828.963 29.0569C828.963 28.3704 829.241 27.8204 829.813 27.375C830.389 26.9274 831.191 26.6998 832.197 26.6998C833.13 26.6998 834.085 26.8477 835.035 27.1377C835.983 27.4276 836.817 27.8159 837.513 28.2909L837.742 28.4478V23.3142L837.654 23.2763C837.012 23.0001 836.165 22.7637 835.137 22.5719C834.114 22.3814 833.186 22.2852 832.378 22.2852ZM808.758 42.4325C806.725 42.4325 805.122 41.756 803.993 40.4233C802.856 39.084 802.281 37.175 802.281 34.7484C802.281 32.2454 802.856 30.2863 803.994 28.9233C805.123 27.5693 806.711 26.8821 808.713 26.8821C810.655 26.8821 812.201 27.5384 813.309 28.8339C814.422 30.1361 814.987 32.0795 814.987 34.6117C814.987 37.175 814.455 39.144 813.408 40.4612C812.368 41.7684 810.804 42.4325 808.758 42.4325ZM809.008 22.2852C805.128 22.2852 802.047 23.4258 799.851 25.6753C797.656 27.925 796.542 31.0383 796.542 34.9295C796.542 38.6269 797.629 41.5983 799.773 43.7641C801.916 45.9306 804.832 47.0281 808.44 47.0281C812.2 47.0281 815.22 45.8716 817.416 43.591C819.611 41.3128 820.724 38.2289 820.724 34.4286C820.724 30.6749 819.68 27.6799 817.62 25.5286C815.559 23.3762 812.661 22.2852 809.008 22.2852ZM788.039 26.9419V22.8539H782.506V46.4589H788.039V34.384C788.039 32.3308 788.503 30.644 789.419 29.37C790.322 28.1111 791.527 27.4732 792.997 27.4732C793.496 27.4732 794.055 27.5556 794.661 27.7188C795.261 27.8809 795.695 28.057 795.951 28.2423L796.184 28.4115V22.8135L796.094 22.7749C795.579 22.5552 794.85 22.4444 793.927 22.4444C792.537 22.4444 791.293 22.8927 790.227 23.7755C789.291 24.5514 788.615 25.6152 788.098 26.9419H788.039ZM772.597 22.2852C770.058 22.2852 767.794 22.8315 765.868 23.9083C763.938 24.9875 762.445 26.5284 761.43 28.4877C760.419 30.4423 759.906 32.7254 759.906 35.2715C759.906 37.5018 760.403 39.5486 761.387 41.3524C762.371 43.1593 763.764 44.5729 765.528 45.5533C767.289 46.5324 769.324 47.0288 771.577 47.0288C774.207 47.0288 776.452 46.5013 778.252 45.4608L778.325 45.419V40.3319L778.092 40.5023C777.277 41.0984 776.365 41.5741 775.385 41.9169C774.407 42.2594 773.515 42.4325 772.733 42.4325C770.562 42.4325 768.819 41.7507 767.554 40.4067C766.286 39.0609 765.643 37.171 765.643 34.793C765.643 32.4001 766.314 30.4617 767.635 29.0314C768.952 27.6054 770.699 26.8821 772.825 26.8821C774.644 26.8821 776.416 27.5001 778.093 28.7206L778.325 28.8897V23.5297L778.25 23.4873C777.619 23.1329 776.758 22.8402 775.69 22.6183C774.626 22.3968 773.585 22.2852 772.597 22.2852ZM756.095 22.8541H750.561V46.4589H756.095V22.8541ZM753.385 12.7983C752.474 12.7983 751.68 13.1094 751.027 13.7259C750.372 14.3441 750.039 15.1225 750.039 16.0412C750.039 16.9453 750.368 17.7095 751.017 18.3113C751.662 18.9114 752.459 19.2155 753.385 19.2155C754.311 19.2155 755.111 18.9114 755.763 18.3123C756.42 17.7095 756.753 16.9456 756.753 16.0412C756.753 15.1547 756.429 14.3842 755.79 13.7508C755.152 13.1186 754.343 12.7983 753.385 12.7983ZM739.579 21.1125V46.4589H745.226V13.5209H737.41L727.476 37.9863L717.835 13.5209H709.701V46.4587H715.008V21.11H715.19L725.37 46.4589H729.375L739.396 21.1125H739.579Z" fill="#120D26"/>
<path d="M664.54 28.6351H638.509V2.51404H664.54V28.6351Z" fill="#120D26"/>
<path d="M693.28 28.6351H667.25V2.51404H693.28V28.6351Z" fill="#120D26"/>
<path d="M664.539 57.4859H638.509V31.3651H664.539V57.4859Z" fill="#120D26"/>
<path d="M693.28 57.4859H667.25V31.3651H693.28V57.4859Z" fill="#120D26"/>
</g>
<path d="M1124.16 21.4404H1118.83V47.0239H1124.16V36.6522H1135.85V47.0239H1141.01V21.4404H1135.85V31.8121H1124.16V21.4404ZM1165.08 36.1336C1165.08 40.2823 1163.01 42.5295 1159.23 42.5295C1155.45 42.5295 1153.39 40.2823 1153.39 35.9608V21.4404H1148.23V36.1336C1148.23 43.3938 1152.18 47.5425 1159.23 47.5425C1166.28 47.5425 1170.24 43.3938 1170.24 35.9608V21.4404H1165.08V36.1336ZM1214.93 21.4404L1209.09 39.0723L1203.42 21.4404H1197.91L1206.85 47.0239H1211.15L1217 30.2564L1222.67 47.0239H1227.14L1235.91 21.4404H1230.58L1224.91 39.0723L1219.06 21.4404H1214.93ZM1254.65 31.2935H1245.19V26.1077H1258.95V21.4404H1240.04V47.0239H1259.46V42.3566H1245.19V35.9608H1254.65V31.2935ZM1265.65 21.4404H1270.81V47.0239H1265.65V21.4404ZM1192.07 41.6652L1194.3 47.0239H1199.81L1188.63 21.4404L1188.46 21.2676H1183.99L1172.81 47.0239H1178.14L1180.38 42.0109L1180.55 41.6652H1192.07ZM1186.22 27.8363L1189.83 36.4794L1190.01 36.9979H1182.1L1182.27 36.4794L1186.22 27.8363Z" fill="#120D26"/>
<path d="M1067.94 44.4309C1067.94 44.4309 1068.11 44.2581 1067.94 44.2581C1060.03 26.972 1049.2 13.6616 1049.2 13.6616C1049.2 13.6616 1043.36 19.1932 1043.7 24.8976C1043.87 29.2192 1047.14 31.6392 1047.14 31.6392C1052.3 36.6522 1064.68 43.048 1067.6 44.4309H1067.94ZM1065.88 48.7525C1065.88 48.5796 1065.54 48.5796 1065.54 48.5796L1044.9 49.271C1047.14 53.2469 1050.92 56.3584 1054.88 55.4941C1057.63 54.8026 1063.82 50.4811 1065.71 49.0982C1066.05 48.7525 1065.88 48.7525 1065.88 48.7525ZM1066.22 46.851C1066.4 46.6781 1066.22 46.5053 1066.22 46.5053C1057.11 40.2823 1039.58 30.9478 1039.58 30.9478C1038.03 35.9607 1040.09 39.9365 1040.09 39.9365C1042.33 44.7767 1046.62 46.1595 1046.62 46.1595C1048.52 47.0239 1050.58 47.0239 1050.58 47.0239H1066.05C1066.22 47.0239 1066.22 46.851 1066.22 46.851ZM1067.6 4.67286C1066.74 4.67286 1064.33 5.36431 1064.33 5.36431C1058.83 6.7472 1057.63 11.7602 1057.63 11.7602C1056.6 14.8717 1057.63 18.3289 1057.63 18.3289C1059.52 26.4534 1068.46 39.9365 1070.35 42.7023L1070.52 42.8752C1070.69 42.8752 1070.69 42.7023 1070.69 42.7023C1073.79 12.4516 1067.6 4.67286 1067.6 4.67286ZM1074.48 42.7023C1074.65 42.7023 1074.82 42.5295 1074.82 42.5295C1076.88 39.5908 1085.65 26.2805 1087.54 18.156C1087.54 18.156 1088.57 14.1802 1087.54 11.5873C1087.54 11.5873 1086.17 6.57433 1080.66 5.19144C1080.66 5.19144 1079.12 4.84572 1077.4 4.5C1077.4 4.5 1071.21 12.4516 1074.3 42.3566C1074.3 42.7023 1074.48 42.7023 1074.48 42.7023ZM1079.29 48.5796C1079.29 48.5796 1079.12 48.5796 1079.12 48.7525V49.0982C1081.18 50.4811 1087.03 54.8026 1089.95 55.4941C1089.95 55.4941 1095.28 57.3955 1099.92 49.271L1079.29 48.5796ZM1105.59 30.7749C1105.59 30.7749 1088.06 40.2823 1078.95 46.5053C1078.95 46.5053 1078.77 46.6781 1078.77 46.851C1078.77 46.851 1078.77 47.0239 1078.95 47.0239H1094.76C1094.76 47.0239 1096.31 47.0239 1098.37 46.1595C1098.37 46.1595 1102.67 44.7767 1105.08 39.7637C1105.08 39.5908 1107.14 35.615 1105.59 30.7749ZM1077.23 44.4309C1077.23 44.4309 1077.4 44.6038 1077.57 44.4309C1080.49 42.8752 1092.87 36.6522 1098.03 31.6392C1098.03 31.6392 1101.3 29.0463 1101.47 24.8976C1101.81 19.0203 1095.97 13.6616 1095.97 13.6616C1095.97 13.6616 1085.13 26.6262 1077.23 44.0852C1077.23 44.0852 1077.05 44.2581 1077.23 44.4309Z" fill="#120D26"/>
<defs>
<clipPath id="clip0_2_248">
<rect width="181.01" height="60" fill="white" transform="translate(0.5)"/>
</clipPath>
<clipPath id="clip1_2_248">
<rect width="182.999" height="51" fill="white" transform="translate(318.51 4.5)"/>
</clipPath>
<clipPath id="clip2_2_248">
<rect width="256.597" height="55" fill="white" transform="translate(638.509 2.5)"/>
</clipPath>
</defs>
</svg>
