<?xml version="1.0" standalone="no"?>
<!DOCTYPE svg PUBLIC "-//W3C//DTD SVG 20010904//EN"
 "http://www.w3.org/TR/2001/REC-SVG-20010904/DTD/svg10.dtd">
<svg version="1.0" xmlns="http://www.w3.org/2000/svg"
 width="32.000000pt" height="32.000000pt" viewBox="0 0 32.000000 32.000000"
 preserveAspectRatio="xMidYMid meet">

<g transform="translate(0.000000,32.000000) scale(0.100000,-0.100000)"
fill="#000000" stroke="none">
<path d="M69 251 c-35 -35 -39 -44 -39 -91 0 -47 4 -56 39 -91 35 -35 44 -39
91 -39 48 0 56 4 92 40 39 39 40 42 36 97 -4 49 -9 60 -41 90 -32 28 -44 33
-88 33 -46 0 -55 -4 -90 -39z m131 -101 c-25 -21 -49 -39 -54 -40 -12 0 -56
40 -56 52 0 13 22 9 41 -8 16 -14 20 -13 56 20 24 22 41 31 48 25 6 -6 -6 -23
-35 -49z"/>
</g>
</svg>
